<svg width="64" height="64" viewBox="0 0 64 64" xmlns="http://www.w3.org/2000/svg"><g fill="none" fill-rule="evenodd"><path d="M0 0h64v64H0z"/><path d="M24.662 10c-.835 0-1.705.22-2.533.677-3.415 1.887-5.796 4.51-7.2 7.742-1.757 4.039-.715 9.039.6 11.845.698 2.118 2.514 5.597 4.772 9.136 2.664 4.175 4.447 6.558 5.963 7.967l.517.491c2.014 1.924 5.761 5.507 10.211 6.041.563.067 1.14.101 1.724.101.612 0 1.234-.037 1.861-.11 2.453-.287 5.028-1.143 7.445-2.474 1.025-.564 1.57-1.385 1.795-2.399.24-1.079.19-2.397-.642-3.705l-3.843-6.02c-.417-.654-1.428-2.937-3.785-2.937-.186 0-.38.015-.583.045-.509.076-1.036.351-1.486.6l-2.844 1.712c-.504.163-.94.288-1.17.288h-.044c-.168 0-.432-.035-1.08-.878l-6.607-11.198c-.165-.257-.184-.415-.184-.429 0-.002.05-.089.258-.204l3.936-2.118c.966-.532 1.605-1.31 1.845-2.25.388-1.499-.358-2.914-.982-3.891l-4.236-6.026C27.54 10.703 26.156 10 24.662 10m0 2c.86 0 1.577.384 2.022 1.081l.024.038.026.037 4.21 5.988c.402.636.897 1.547.707 2.283-.102.397-.395.732-.855.985l-3.96 2.13c-.58.323-.986.764-1.17 1.278l-.132.368.017.391c.013.309.106.799.476 1.389l6.59 11.17.063.105.074.098c.663.861 1.444 1.659 2.71 1.659.5 0 1.033-.141 1.787-.386l.218-.071.196-.118 2.812-1.692c.394-.217.658-.336.782-.355a1.98 1.98 0 0 1 .29-.023c.777 0 1.278.606 1.882 1.652.082.142.153.265.215.361l3.842 6.018c.431.679.555 1.397.377 2.197-.116.522-.342.825-.808 1.081-2.193 1.208-4.514 1.982-6.712 2.239-.548.065-1.096.097-1.629.097-.505 0-1.006-.029-1.486-.087-3.787-.454-7.22-3.736-9.073-5.507l-.53-.504c-1.368-1.27-3.107-3.607-5.64-7.578-2.163-3.39-3.91-6.718-4.558-8.686l-.038-.114-.05-.109c-1.253-2.671-1.968-7.002-.579-10.198 1.25-2.873 3.38-5.157 6.334-6.789A3.267 3.267 0 0 1 24.662 12" fill="#fe6443"/></g></svg>