<svg width="64" height="64" viewBox="0 0 64 64" xmlns="http://www.w3.org/2000/svg"><g stroke="#fe6443" stroke-width="2" fill="none" fill-rule="evenodd"><path d="M31.001 24.092h11m-11 6h11" stroke-linecap="round"/><path d="M28.914 42.137c-4.168 0-7.986-3.441-7.986-7.607l.042-13.81c0-4.165 3.776-7.535 7.944-7.535l15.304-.092c4.168 0 7.667 3.559 7.667 7.726 0 0 .065 9.18-.033 10.317-.102 1.196-.572 3.58-1.979 4.988-.289.408-.58.905-.58 1.398 0 .93.548 1.773 1.396 2.146.117.052.23.098.334.139a.96.96 0 0 1 .618.9.957.957 0 0 1-.7.929 14.31 14.31 0 0 1-3.932.549c-1.294 0-2.578-.174-3.816-.517a3.05 3.05 0 0 0-1.472-.03c-1.09.246-3.259.548-4.489.547l-8.318-.048z"/><path d="M45.001 45.258c0 3.043-2.414 5.711-5.585 5.711L22.024 51c-.979 0-2.24-.26-2.738-.373a1.21 1.21 0 0 0-.571.01 10.11 10.11 0 0 1-5.44-.023 1.398 1.398 0 0 1-1.022-1.355c0-.587.354-1.103.902-1.315.054-.02.116-.047.18-.075a.731.731 0 0 0 .438-.672c0-.02-.01-.128-.198-.404-1.179-1.233-1.419-3.413-1.455-3.843-.065-.754-.129-14.28-.119-14.908 0-3.125 2.704-5.95 5.841-5.95" stroke-linecap="round"/></g></svg>