<svg xmlns="http://www.w3.org/2000/svg" viewBox="0 0 18.51 18.51"><defs><style>.cls-1{fill:#fff;}</style></defs><title>icont-callbtn</title><g id="Layer_2" data-name="Layer 2"><g id="Layer_1-2" data-name="Layer 1"><path class="cls-1" d="M.77,10.85a15.44,15.44,0,0,1,4.58-6l.71-.61C8,2.57,11,0,14.42,0h.22a3.87,3.87,0,0,1,1.83.48h0l0,0,.16.17L18.2,2.25a1.35,1.35,0,0,1-.08,1.82l-3,2.87a1.2,1.2,0,0,1-1.75-.07L11.91,5.45a.71.71,0,0,0-.5-.21c-.67,0-1.7.87-3.16,2.28a24.75,24.75,0,0,0-2.6,2.75c-.55.76-.64,1.26-.29,1.62l.31.32h0l.08.1.08.08h0l.92,1.1a1.34,1.34,0,0,1-.08,1.81l-3,2.88a1.19,1.19,0,0,1-.84.34,1.21,1.21,0,0,1-.91-.42l-1-1.16h0l-.31-.3C-.34,15.79-.08,12.89.77,10.85Z"/></g></g></svg>