<svg xmlns="http://www.w3.org/2000/svg" xmlns:xlink="http://www.w3.org/1999/xlink" width="280" height="280" viewBox="0 0 280 280">
    <defs>
        <path id="a" d="M0 0h280v280H0z"/>
    </defs>
    <g fill="none" fill-rule="evenodd">
        <mask id="b" fill="#fff">
            <use xlink:href="#a"/>
        </mask>
        <use fill="#F5F5F5" xlink:href="#a"/>
        <path fill="#F05330" d="M107.143 200.371c1.57 16.858-2.07 23.748-17.995 29.848-33.026 12.64-69.447 19.4-77.609 80.219l259.137.675c-8.842-59.465-49.72-68.329-82.549-80.894-13.727-5.253-18.196-15.788-18.158-29.745a50 50 0 0 1-3.614 3.429c.006 10.234 4.108 20.503 13.868 26.73 0 0-13.076 19.793-39.03 19.953l-.583.002c-34.527 0-44.848-18.917-44.848-18.917 10.622-5.159 15.95-11.646 15.193-28.058a53.562 53.562 0 0 1-3.812-3.242zm92.658-68.66l2.215-2.215-2.215 2.215zm-1.832-5.399c1.035.823 1.957 1.928 2.858 3.322.517.819.782 1.683.954 2.584.171.906.235 1.855.235 2.869-.003 3.229-.669 7.146-1.698 11.156-1.03 3.998-2.417 8.045-3.95 11.376-1.037 2.231-2.11 4.135-3.327 5.58-.711.824-1.46 1.534-2.487 1.988-.785.334-1.569.499-2.342.564-2.768 9.101-6.446 17.804-11.263 25.266-2.169 3.362-4.57 6.478-7.217 9.255a50.35 50.35 0 0 1-3.635 3.459c-2.65 2.277-5.518 4.23-8.614 5.789-5.26 2.654-11.175 4.14-17.685 4.14h-.04c-1.841 0-3.731-.114-5.668-.353-8.988-1.114-16.948-4.633-23.706-9.868a53.91 53.91 0 0 1-3.833-3.271 56.783 56.783 0 0 1-2.612-2.613c-7.932-8.466-13.641-19.555-16.963-31.747l-.036-.119a5.996 5.996 0 0 1-.756.062c-.945 0-1.902-.205-2.842-.584-.793-.322-1.42-.81-1.994-1.37a13.104 13.104 0 0 1-1.604-1.946c-1.012-1.456-1.965-3.237-2.869-5.234-1.808-3.99-3.413-8.83-4.432-13.341-.675-3.016-1.1-5.87-1.103-8.327 0-.937.06-1.818.218-2.662.162-.85.41-1.663.885-2.436.932-1.52 1.91-2.707 3.016-3.565.776-.599 1.644-1.021 2.542-1.22.42 1.625.895 3.219 1.428 4.806a1.08 1.08 0 0 0-.273-.035c-.223 0-.501.052-1.004.432-.49.375-1.15 1.1-1.865 2.272-.03.043-.146.289-.223.708a9.604 9.604 0 0 0-.128 1.7c-.007 2.42.62 6.083 1.634 9.813 1.01 3.733 2.409 7.595 3.85 10.593.952 1.997 1.957 3.622 2.724 4.495.433.5.79.718.811.718.51.203.908.269 1.23.269.431-.006.719-.11 1.035-.325l2.605-1.837.868 3.205c.236.87.472 1.729.7 2.553 3.13 11.518 8.505 21.88 15.795 29.642 7.3 7.769 16.464 12.979 27.434 14.352 1.765.22 3.476.325 5.135.325 5.877-.005 11.088-1.323 15.768-3.673 4.675-2.355 8.824-5.757 12.492-9.97 7.344-8.405 12.74-20.084 16.345-32.603l.636-2.196 2.097.532c.161.04.337.062.521.062.327 0 .724-.067 1.238-.285.01 0 .213-.112.485-.391.27-.276.618-.702.977-1.24.727-1.084 1.537-2.623 2.315-4.407 1.554-3.573 2.993-8.135 3.871-12.27.588-2.748.92-5.335.918-7.224a10.61 10.61 0 0 0-.145-1.894c-.084-.472-.21-.741-.246-.784a14.392 14.392 0 0 0-.286-.431l-.01.038c-1.379 5.717-3.222 11.369-5.455 14.28-.005-.004-.023-.007-.053-.007-.56 0-5.264.806-5.653.806 4.781-11.003 3.48-23.199 2.959-31.546-3.4 4.796-8.844 7.245-14.082 8.895-2.992.943-6.328 1.384-9.88 1.384-23.446 0-56.515-19.145-65.11-39.184-1.53 5.287-19.1 30.66-5.339 58.432-1.662.448-6.024 2.019-6.3 2.139-3.086-6.089-5.491-11.35-7.262-16.686a71.615 71.615 0 0 1-1.503-5.16c-1.407-5.613-3.022-12.596-4.262-19.818-7.958-46.226 24.985-46.525 26.396-47.834 10.477-9.713 24.4-14.599 38.472-14.6 31.14-.001 63.014 23.923 59.933 72.387-.1 1.555-.66 5.833-1.625 10.808z" mask="url(#b)" opacity=".5"/>
    </g>
</svg>
