<svg xmlns="http://www.w3.org/2000/svg" viewBox="0 0 17.55 9.78"><defs><style>.cls-1{opacity:0.7;}.cls-2{fill:#fff;}</style></defs><title>icon-videobtn</title><g id="Layer_2" data-name="Layer 2"><g id="Layer_1-2" data-name="Layer 1"><g class="cls-1"><path class="cls-2" d="M16.73,9.78a1,1,0,0,1-.59-.22l-2.58-1.9a.73.73,0,0,0-.43-.17c-.13,0-.35.07-.35.56a1.59,1.59,0,0,1-1.46,1.68H1.46A1.7,1.7,0,0,1,0,7.86V1.95A1.7,1.7,0,0,1,1.46.09h9.87A1.58,1.58,0,0,1,12.8,1.75a.73.73,0,0,0,.1.42.26.26,0,0,0,.24.14.78.78,0,0,0,.43-.2L16.15.22A1,1,0,0,1,16.73,0c.49,0,.81.5.81,1.25V8.53a1.68,1.68,0,0,1-.21.89A.71.71,0,0,1,16.73,9.78ZM13.14,7a1.08,1.08,0,0,1,.63.25L16.36,9.1a.69.69,0,0,0,.38.15A.31.31,0,0,0,17,9.09a1.12,1.12,0,0,0,.12-.56V1.25c0-.67-.3-.72-.39-.72a.69.69,0,0,0-.38.15l-2.58,1.9a1.12,1.12,0,0,1-.64.24.65.65,0,0,1-.55-.29,1.35,1.35,0,0,1-.21-.78,1.11,1.11,0,0,0-1-1.13H1.46a1.22,1.22,0,0,0-1,1.33V7.86a1.22,1.22,0,0,0,1,1.33h9.87a1.12,1.12,0,0,0,1-1.15C12.38,7.4,12.69,7,13.14,7Z"/></g></g></g></svg>