<?xml version="1.0" encoding="utf-8"?>
<!-- Generator: Adobe Illustrator 21.1.0, SVG Export Plug-In . SVG Version: 6.00 Build 0)  -->
<svg version="1.1" id="Layer_1" xmlns="http://www.w3.org/2000/svg" xmlns:xlink="http://www.w3.org/1999/xlink" x="0px" y="0px"
	 viewBox="0 0 17.5 14" style="enable-background:new 0 0 17.5 14;" xml:space="preserve">
<style type="text/css">
	.st0{opacity:0.7;fill:#FFFFFF;enable-background:new    ;}
</style>
<title>icon-voicebtnoff0</title>
<g id="Layer_2">
	<g id="Layer_1-2">
		<path class="st0" d="M1.5,11.2c-0.7-0.1-1.1-0.7-1-1.3V4c-0.1-0.6,0.4-1.2,1-1.3h6.7l0.3-0.5H1.5C0.6,2.2-0.1,3.1,0,4v5.9
			c-0.1,0.9,0.6,1.7,1.5,1.9h1.7l0.3-0.5L1.5,11.2z"/>
		<path class="st0" d="M16.7,2c-0.2,0-0.4,0.1-0.6,0.2l-2.6,1.9c-0.1,0.1-0.3,0.2-0.4,0.2c-0.1,0-0.2-0.1-0.2-0.1
			c-0.1-0.1-0.1-0.3-0.1-0.4c0-0.9-0.6-1.6-1.5-1.7H11l-0.3,0.5h0.6c0.6,0.1,1,0.5,1,1.1c0,0.3,0.1,0.5,0.2,0.8
			c0.1,0.2,0.3,0.3,0.6,0.3c0.2,0,0.5-0.1,0.6-0.2l2.6-1.9c0.1-0.1,0.2-0.1,0.4-0.2c0.1,0,0.4,0,0.4,0.7v7.3c0,0.2,0,0.4-0.1,0.6
			c-0.1,0.1-0.2,0.2-0.3,0.2c-0.1,0-0.3-0.1-0.4-0.1l-2.5-1.9C13.6,9.1,13.4,9,13.1,9c-0.5,0-0.8,0.4-0.8,1.1c0,0.6-0.4,1.1-1,1.1
			H5.7l-0.3,0.5h5.9c0.9-0.1,1.5-0.8,1.5-1.7c0-0.5,0.2-0.6,0.4-0.6c0.2,0,0.3,0.1,0.4,0.2l2.6,1.9c0.2,0.1,0.4,0.2,0.6,0.2
			c0.2,0,0.5-0.1,0.6-0.4c0.2-0.3,0.2-0.6,0.2-0.9V3.3C17.5,2.5,17.2,2,16.7,2z"/>
		<polygon class="st0" points="3.6,12.6 3.6,12.6 2.9,13.7 3.5,13.7 4,13 4,13 9.1,3.9 9.1,3.9 10.8,0.9 10.1,0.9 8.7,3.4 		"/>
	</g>
</g>
</svg>
