<svg width="64" height="64" viewBox="0 0 64 64" xmlns="http://www.w3.org/2000/svg"><g fill="none" fill-rule="evenodd"><path d="M0 0h64v64H0z"/><path d="M53.089 19a4.49 4.49 0 0 0-2.193.583l-8.182 4.091C41.05 24.598 40 26.487 40 28.553v6.894c0 2.066 1.05 3.955 2.714 4.879l8.182 4.091c.719.4 1.465.583 2.193.583 2.576 0 4.91-2.3 4.91-5.462V24.462C58 21.3 55.666 19 53.09 19m0 2c1.4 0 2.91 1.323 2.91 3.462v15.076C56 41.677 54.49 43 53.09 43c-.415 0-.827-.111-1.222-.331l-.038-.021-.04-.02-8.137-4.069C42.647 37.983 42 36.766 42 35.447v-6.894c0-1.319.647-2.536 1.652-3.112l8.138-4.069.039-.02.038-.021c.395-.22.807-.331 1.222-.331M32 16H12a6 6 0 0 0-6 6v20a6 6 0 0 0 6 6h20a6 6 0 0 0 6-6V22a6 6 0 0 0-6-6m0 2c2.206 0 4 1.794 4 4v20c0 2.206-1.794 4-4 4H12c-2.206 0-4-1.794-4-4V22c0-2.206 1.794-4 4-4h20" fill="#fe6443"/></g></svg>