<?xml version="1.0" encoding="utf-8"?>
<!-- Generator: Adobe Illustrator 21.1.0, SVG Export Plug-In . SVG Version: 6.00 Build 0)  -->
<svg version="1.1" id="Layer_1" xmlns="http://www.w3.org/2000/svg" xmlns:xlink="http://www.w3.org/1999/xlink" x="0px" y="0px"
	 viewBox="0 0 9.9 14.6" style="enable-background:new 0 0 9.9 14.6;" xml:space="preserve">
<style type="text/css">
	.st0{fill:#FFFFFF;}
</style>
<title>icon-callbtn_1</title>
<g>
	<g>
		<path class="st0" d="M2.9,7.5h1.2l0.3-0.5H2.8V2.6c0-1.2,0.9-2.1,2.1-2.1c0,0,0.1,0,0.1,0c1,0,1.9,0.8,2,1.8l0.4-0.6
			C7.1,0.6,6.1,0,5,0C3.6,0,2.4,1.2,2.4,2.6v4.7c0,0.7,0.3,1.4,0.8,1.8l0.2-0.4C3.1,8.4,2.9,8,2.9,7.5z"/>
		<path class="st0" d="M7.1,4.6v2.5H5.6L5.3,7.5h1.8C7,8.6,6.1,9.4,5,9.4v0c-0.2,0-0.4,0-0.7-0.1L4.1,9.7C4.4,9.8,4.7,9.9,5,9.9
			c1.4,0,2.6-1.2,2.6-2.6V3.7L7.1,4.6z"/>
		<path class="st0" d="M0.4,7.3H0c0,1.6,0.8,3,2,3.9l0.2-0.4C1.1,10,0.4,8.8,0.4,7.3z"/>
		<path class="st0" d="M5.2,12.3c2.6-0.2,4.7-2.3,4.7-4.9H9.4c0,2.5-2,4.5-4.5,4.5c-0.6,0-1.2-0.1-1.8-0.4l-0.2,0.4
			c0.5,0.2,1.1,0.4,1.8,0.4v1.9H0.2v0.5h9.4v-0.5H5.2V12.3z"/>
	</g>
	<polygon class="st0" points="8.3,0.5 7.7,1.6 7.3,2.4 6.9,3.1 4.9,6.7 4.6,7.2 3.8,8.5 3.6,8.9 2.6,10.7 2.4,11 1.8,12.2 1.1,13.3 
		1.8,13.3 2.2,12.6 2.2,12.6 2.9,11.3 3.1,10.9 4.1,9.3 4.3,8.9 5.3,7.2 5.5,6.7 7.3,3.5 7.3,3.5 7.8,2.6 9,0.5 	"/>
</g>
</svg>
