<?xml version="1.0" encoding="utf-8"?>
<!-- Generator: Adobe Illustrator 21.1.0, SVG Export Plug-In . SVG Version: 6.00 Build 0)  -->
<svg version="1.1" id="Layer_1" xmlns="http://www.w3.org/2000/svg" xmlns:xlink="http://www.w3.org/1999/xlink" x="0px" y="0px"
	 viewBox="0 0 9.9 14.6" style="enable-background:new 0 0 9.9 14.6;" xml:space="preserve">
<style type="text/css">
	.st0{opacity:0.75;}
	.st1{fill:#FFFFFF;}
</style>
<title>icon-callbtn_1</title>
<g id="Layer_2">
	<g id="Layer_1-2">
		<g class="st0">
			<path class="st1" d="M5,9.9c1.4,0,2.6-1.2,2.6-2.6V2.6C7.6,1.2,6.4,0,5,0S2.4,1.2,2.4,2.6v4.7C2.4,8.7,3.6,9.9,5,9.9z M5,9.4
				c-1.1,0-2-0.8-2.1-1.9h4.2C7,8.6,6.1,9.4,5,9.4L5,9.4z M5,0.4c1.2,0,2.1,1,2.1,2.2v4.5H2.8V2.6C2.8,1.4,3.8,0.5,5,0.4
				C5,0.5,5,0.5,5,0.4L5,0.4z"/>
			<path class="st1" d="M5.2,12.2c2.6-0.2,4.7-2.3,4.7-4.9H9.4c0,2.5-2,4.5-4.5,4.5s-4.5-2-4.5-4.5H0c0,2.6,2.1,4.8,4.7,4.9v1.9H0.2
				v0.5h9.4v-0.5H5.2V12.2z"/>
		</g>
	</g>
</g>
</svg>
